<?xml version="1.0" encoding="UTF-8"?>
<svg id="Layer_1" data-name="Layer 1" xmlns="http://www.w3.org/2000/svg" viewBox="0 0 200 200">
  <circle cx="100.25" cy="100.25" r="95.75" style="fill: none; stroke: #ba5a31; stroke-miterlimit: 10; stroke-width: 6px;"/>
  <path d="M168.891,82.4662c-1.5655-1.0437-4.1746-2.0873-6.2619-2.6091s-3.131-.5218-3.131-2.0873-.5218-8.3492,1.0437-10.4365,2.6091-3.131,4.6964-3.6528,2.0873-2.0873,2.0873-2.0873c0,0,.5218-1.5655-3.131-2.0873s-44.877-13.5675-44.877-13.5675l-75.143,10.4365s-6.7837,.5218-8.871,6.2619-1.0437,13.4576,0,15.8608c1.0437,2.4031,3.6528,6.0559,3.6528,6.0559,0,0-4.6964,1.0437-5.7401,1.5655s-1.5655,1.5655-.5218,2.6091,4.6964,1.5655,5.7401,4.1746,1.5655,4.6964,1.5655,7.3056v4.6964s-7.8274,2.0873-8.871,3.131-1.0437,1.5655,0,2.0873,2.6091,1.0437,2.6091,1.0437c0,0-4.1221,4.1185-3.8875,10.6694,.2347,6.5509,1.2783,12.291,4.4093,14.9001s54.2699,18.2639,54.2699,18.2639l76.1866-18.7857s1.0437-.5218,.5218-1.0437-3.6528-2.0873-5.2183-2.6091-4.6964-1.0437-4.6964-1.0437c0,0-.5218-8.3492,.5218-10.4365s2.0873-4.1746,4.6964-4.6964,2.6091-2.0873,2.6091-2.6091-.5218-1.5655-2.0873-1.5655-1.5655-.5218-1.5655-.5218c0,0,2.0873-2.0873,3.131-3.6528s3.4232-7.4839,2.7553-13.1348c-.668-5.6509-1.7116-6.6946-2.2334-7.7382s-1.0437-1.5655,0-1.5655,6.2619-1.5655,6.2619-1.5655c0,0,1.0437-.5218-.5218-1.5655Zm-72.5338-4.1746l62.0973-12.5238s-1.5655,3.6528-1.5655,7.8274,.5218,6.2619,.5218,6.2619l-61.5755,15.133,.5218-16.6984Zm-55.3136,13.5675l62.3831,13.2097,.4424,16.5344-61.26-15.6548s.5218-2.6091,.5218-5.7401-2.0873-8.3492-2.0873-8.3492Zm-2.6091-24.004c0-7.3056,6.2619-5.2183,6.2619-5.2183l48.5298,15.6548-.5218,16.6984-43.8334-12.002s-6.2619-1.5655-7.8274-3.131-2.6091-4.6964-2.6091-12.002Zm50.0953,79.8394l-48.008-13.5675s-6.2619-1.0437-6.2619-9.9147,3.131-9.9147,5.7401-9.3929,49.0517,16.1766,49.0517,16.1766l-.5218,16.6984Zm64.7064-15.133l-61.7271,15.133,.3095-16.4927,13.4095-2.8148,2.0873,.5218,7.8274-2.6091,39.137-7.8274s-1.0437,2.6091-1.5655,5.7401c-.5218,3.131,.5218,8.3492,.5218,8.3492Zm7.8274-33.3969c-.5218,8.3492-8.3492,9.3929-8.3492,9.3929l-45.9207,13.0457-.5218-16.6984s45.3989-15.133,49.0517-16.1766,6.2619,2.0873,5.7401,10.4365Z" style="fill: #ba5a31;"/>
</svg>