<?xml version="1.0" encoding="UTF-8"?>
<svg id="Layer_1" data-name="Layer 1" xmlns="http://www.w3.org/2000/svg" viewBox="0 0 200 200">
  <circle cx="100.25" cy="99.25" r="95.75" style="fill: none; stroke: #ba5a31; stroke-miterlimit: 10; stroke-width: 6px;"/>
  <path d="M136.1574,117.4518v-14.7181l7.3465,.0252s6.297,1.0495,6.297-5.2475V56.2899s0-6.8575-6.8217-6.9563-57.1974-.0988-57.1974-.0988c0,0-8.3959-1.0495-8.3959,6.297v40.0411s-1.0495,7.1861,8.3959,7.1861h34.6333l15.7424,14.6929Z" style="fill: #ba5a31;"/>
  <path d="M68.9899,63.9276h-15.178s-5.8118,0-5.8118,4.198v42.8163s.0792,6.5099,5.8118,6.5099h8.2317l-.4001,13.6434,15.7077-13.6434h36.2249s4.7401,0,6.8391-5.2475" style="fill: none; stroke: #ba5a31; stroke-miterlimit: 10; stroke-width: 6px;"/>
  <path d="M152.9493,109.0558v22.8058s1.0495,6.58-4.198,6.58h-8.8297v13.5584l-16.3582-13.5584h-36.7323s-6.297,0-6.297-4.198v-6.9081" style="fill: none; stroke: #ba5a31; stroke-miterlimit: 10; stroke-width: 6px;"/>
</svg>