<?xml version="1.0" encoding="UTF-8"?>
<svg id="Layer_1" data-name="Layer 1" xmlns="http://www.w3.org/2000/svg" viewBox="0 0 200 200">
  <circle cx="100.25" cy="100.25" r="95.75" style="fill: none; stroke: #ba5a31; stroke-miterlimit: 10; stroke-width: 6px;"/>
  <path d="M132.6117,157.9945s7.9587-.1975,9.8656-6.8717c1.9069-6.6742-.9535-9.5346-2.8604-11.4416s-1.9069-4.7673,0-6.6742,2.8604-1.9069,4.7673-1.9069h14.8719s3.244,0,3.244-3.8139,0-15.8687,0-15.8687c0,0,0-3.2005-2.8604-4.154-2.8604-.9535-3.8139,0-5.7208,.9535s-4.7673,3.8139-7.6277,3.8139-7.7323-.9535-9.1102-7.151-.4244-12.8718,5.2964-14.7787c5.7208-1.9069,10.4881,1.9069,12.395,3.8139s7.6277,.1008,7.6277-3.2867,0-16.5628,0-16.5628c0,0,0-3.9871-2.8604-3.9871h-17.1623s-2.8604,0-3.8139-3.8139,2.8604-6.6742,3.8139-9.5346,.9535-10.4881-4.7673-12.395c-5.7208-1.9069-13.3485-.9535-15.2554,4.7673s1.9069,8.5812,2.8604,11.4416,.9535,5.7208-.9535,7.6277-2.8604,1.9069-4.7673,1.9069h-14.302s-2.8604,0-2.8604,2.8604v16.2089s0,2.9352,2.3837,2.8978,7.151-4.8047,11.9183-4.8047,9.5346,3.8139,10.4881,7.6277,1.9069,10.4881-1.9069,14.302-10.4881,5.7208-15.2554,2.8604-4.7673-2.8604-5.7208-2.8604-2.8604,.9535-2.8604,3.8139v15.1336s0,2.6811,3.3371,2.8317,17.6391,.1506,17.6391,.1506c0,0,3.8139,0,3.8139,4.7673s-4.7673,5.7208-4.7673,11.4416c0,2.8604,.2915,10.8831,11.1106,10.6856Z" style="fill: #ba5a31;"/>
  <path d="M68.9321,157.9945s7.7562-.1975,9.6631-5.9183,0-9.5346-.9535-10.4881-2.8604-2.8604-2.8604-5.7208,2.8604-4.7673,6.6742-4.7673h14.5139s3.6019,0,3.6019-3.8139v-16.1719s0-4.8043,4.7673-4.8043,4.7673,3.8139,11.4416,3.8139c5.7208,0,9.5346-2.8604,9.5346-8.5812s-1.2194-8.1228-4.7673-10.4881c-2.8604-1.9069-6.9402-1.4118-10.4881,.9535-2.8604,1.9069-6.6742,3.8139-8.5812,1.9069s-1.9069-4.7673-1.9069-10.4881v-9.5346s0-3.8139-3.8139-3.8139h-15.4825s-3.5868,0-4.5402-3.8139c-.9535-3.8139,3.8139-5.7208,3.8139-11.4416,0-3.8139-.9535-11.4416-10.4881-11.4416s-10.4881,5.7208-10.4881,11.4416c0,4.7673,3.8139,7.6277,3.8139,10.4881,0,3.8139-1.9069,4.7673-6.6742,4.7673h-13.3485s-3.8139,0-3.8139,3.8139v15.3624s0,5.6138,4.7673,5.6138,6.6742-5.7208,12.395-5.7208,9.5346,5.7208,9.5346,13.3485c0,7.6277-6.6742,9.5346-10.4881,9.5346s-6.6742-4.7673-10.4881-4.7673-5.7208,1.9069-5.7208,4.7673v15.1543s0,3.915,3.8139,3.915h16.2089s2.8604,0,3.8139,3.8139-3.8139,6.6742-3.8139,12.395,2.6035,10.8831,10.3597,10.6856Z" style="fill: #ba5a31;"/>
</svg>