<?xml version="1.0" encoding="UTF-8"?>
<svg id="Layer_1" data-name="Layer 1" xmlns="http://www.w3.org/2000/svg" viewBox="0 0 200 203.01">
  <defs>
    <style>
      .cls-1 {
        stroke: #afafaf;
        stroke-width: 6px;
      }

      .cls-1, .cls-2 {
        fill: none;
        stroke-linecap: round;
        stroke-miterlimit: 10;
      }

      .cls-3 {
        fill: #afafaf;
      }

      .cls-2 {
        stroke: #fff;
        stroke-width: 7px;
      }
    </style>
  </defs>
  <g id="trash_bottom">
    <path class="cls-3" d="M56.9,75.63l15.78,116.8c.22,1.63,1.61,2.84,3.25,2.84h91.83c.81,0,1.5-.59,1.62-1.39l17.87-118.22c.15-.99-.62-1.88-1.62-1.88H58.52c-.99,0-1.75,.87-1.62,1.86Z"/>
    <line class="cls-2" x1="121.5" y1="95.94" x2="122.08" y2="173.22"/>
    <line class="cls-2" x1="154.96" y1="96.11" x2="147.73" y2="173.05"/>
    <line class="cls-2" x1="87.15" y1="96.09" x2="94.04" y2="173.06"/>
  </g>
  <g id="trash_top">
    <path class="cls-3" d="M50.94,36.69l138.52,34.67,2.83-11.14s3.98-9.16-11.94-13.14L67.8,18.91s-11.47-3.76-13.77,5.42l-3.09,12.36Z"/>
    <path class="cls-1" d="M98.12,27.35l1.06-4.23s2.53-10.1,12.08-7.71l36.63,9.17s9.56,2.39,7.16,11.95c-2.39,9.56-1.2,4.78-1.2,4.78"/>
  </g>
  <path class="cls-3" d="M93.57,60.02c-12.16-11.41-66.4-17.52-78.07,35.98H5.52c-1.2,0-1.85,1.4-1.08,2.32l22.95,27.37c.57,.68,1.62,.67,2.18-.02l22.07-27.37c.74-.92,.09-2.3-1.1-2.3h-11.05c6.32-43.32,46.03-36.95,53.71-35.3,.39,.08,.65-.4,.36-.67Z"/>
</svg>