<?xml version="1.0" encoding="UTF-8"?>
<svg id="Layer_1" data-name="Layer 1" xmlns="http://www.w3.org/2000/svg" viewBox="0 0 200 200">
  <circle cx="100.25" cy="100.25" r="95.75" style="fill: none; stroke: #ba5a31; stroke-miterlimit: 10; stroke-width: 6px;"/>
  <path d="M113.892,123.9242l13.0317-7.017s3.0073-3.0073,10.0243,2.0049,18.0438,12.0292,18.0438,12.0292c0,0,6.0146,3.0073,2.0049,8.0195s-13.0317,14.0341-13.0317,14.0341c0,0-3.0073,4.0097-12.0292,1.0024-9.0219-3.0073-31.0755-15.0365-48.1169-32.0779s-30.073-37.0901-34.0828-46.112-3.0073-16.039,0-19.0463,13.0317-11.0268,13.0317-11.0268c0,0,5.0122-5.0122,10.0243,2.0049s12.0292,19.0463,12.0292,19.0463c0,0,3.0073,5.0122,1.0024,9.0219s-7.017,12.0292-7.017,12.0292c0,0,25.0609,30.073,35.0852,36.0877Z" style="fill: #ba5a31;"/>
</svg>